<mxfile host="65bd71144e">
    <diagram id="W_JhlvkRYMEiI5sHgnop" name="Page-1">
        <mxGraphModel dx="153" dy="866" grid="1" gridSize="10" guides="1" tooltips="1" connect="1" arrows="1" fold="1" page="1" pageScale="1" pageWidth="850" pageHeight="1100" math="0" shadow="0">
            <root>
                <mxCell id="0"/>
                <mxCell id="1" parent="0"/>
                <mxCell id="2" value="method of payment" style="whiteSpace=wrap;html=1;align=center;" parent="1" vertex="1">
                    <mxGeometry x="320" y="460" width="100" height="40" as="geometry"/>
                </mxCell>
                <mxCell id="3" value="delivery&lt;br&gt;companies" style="whiteSpace=wrap;html=1;align=center;" parent="1" vertex="1">
                    <mxGeometry x="100" y="670" width="100" height="40" as="geometry"/>
                </mxCell>
                <mxCell id="4" value="companies" style="whiteSpace=wrap;html=1;align=center;" parent="1" vertex="1">
                    <mxGeometry x="670" y="670" width="100" height="40" as="geometry"/>
                </mxCell>
                <mxCell id="5" value="item" style="whiteSpace=wrap;html=1;align=center;" parent="1" vertex="1">
                    <mxGeometry x="670" y="280" width="100" height="40" as="geometry"/>
                </mxCell>
                <mxCell id="6" value="review" style="whiteSpace=wrap;html=1;align=center;" parent="1" vertex="1">
                    <mxGeometry x="40" y="280" width="100" height="40" as="geometry"/>
                </mxCell>
                <mxCell id="7" value="user" style="whiteSpace=wrap;html=1;align=center;" parent="1" vertex="1">
                    <mxGeometry x="360" y="280" width="100" height="40" as="geometry"/>
                </mxCell>
                <mxCell id="8" value="pay with" style="shape=rhombus;perimeter=rhombusPerimeter;whiteSpace=wrap;html=1;align=center;" parent="1" vertex="1">
                    <mxGeometry x="360" y="360" width="80" height="60" as="geometry"/>
                </mxCell>
                <mxCell id="9" value="shipping" style="shape=rhombus;perimeter=rhombusPerimeter;whiteSpace=wrap;html=1;align=center;" parent="1" vertex="1">
                    <mxGeometry x="90" y="420" width="120" height="60" as="geometry"/>
                </mxCell>
                <mxCell id="10" value="ask" style="shape=rhombus;perimeter=rhombusPerimeter;whiteSpace=wrap;html=1;align=center;" parent="1" vertex="1">
                    <mxGeometry x="360" y="660" width="120" height="60" as="geometry"/>
                </mxCell>
                <mxCell id="11" value="process" style="shape=rhombus;perimeter=rhombusPerimeter;whiteSpace=wrap;html=1;align=center;" parent="1" vertex="1">
                    <mxGeometry x="670" y="370" width="100" height="60" as="geometry"/>
                </mxCell>
                <mxCell id="12" value="order" style="shape=rhombus;perimeter=rhombusPerimeter;whiteSpace=wrap;html=1;align=center;" parent="1" vertex="1">
                    <mxGeometry x="520" y="270" width="90" height="60" as="geometry"/>
                </mxCell>
                <mxCell id="13" value="write" style="shape=rhombus;perimeter=rhombusPerimeter;whiteSpace=wrap;html=1;align=center;" parent="1" vertex="1">
                    <mxGeometry x="200" y="270" width="70" height="60" as="geometry"/>
                </mxCell>
                <mxCell id="15" value="document" style="ellipse;whiteSpace=wrap;html=1;align=center;" parent="1" vertex="1">
                    <mxGeometry x="110" y="190" width="100" height="40" as="geometry"/>
                </mxCell>
                <mxCell id="16" value="product" style="ellipse;whiteSpace=wrap;html=1;align=center;" parent="1" vertex="1">
                    <mxGeometry y="190" width="100" height="40" as="geometry"/>
                </mxCell>
                <mxCell id="17" value="email" style="ellipse;whiteSpace=wrap;html=1;align=center;" parent="1" vertex="1">
                    <mxGeometry x="450" y="190" width="100" height="40" as="geometry"/>
                </mxCell>
                <mxCell id="18" value="user name" style="ellipse;whiteSpace=wrap;html=1;align=center;" parent="1" vertex="1">
                    <mxGeometry x="420" y="140" width="100" height="40" as="geometry"/>
                </mxCell>
                <mxCell id="19" value="adress" style="ellipse;whiteSpace=wrap;html=1;align=center;" parent="1" vertex="1">
                    <mxGeometry x="310" y="140" width="100" height="40" as="geometry"/>
                </mxCell>
                <mxCell id="20" value="name" style="ellipse;whiteSpace=wrap;html=1;align=center;" parent="1" vertex="1">
                    <mxGeometry x="270" y="190" width="100" height="40" as="geometry"/>
                </mxCell>
                <mxCell id="21" value="category" style="ellipse;whiteSpace=wrap;html=1;align=center;" parent="1" vertex="1">
                    <mxGeometry x="750" y="200" width="100" height="40" as="geometry"/>
                </mxCell>
                <mxCell id="22" value="brand" style="ellipse;whiteSpace=wrap;html=1;align=center;" parent="1" vertex="1">
                    <mxGeometry x="720" y="150" width="100" height="40" as="geometry"/>
                </mxCell>
                <mxCell id="23" value="product name" style="ellipse;whiteSpace=wrap;html=1;align=center;" parent="1" vertex="1">
                    <mxGeometry x="610" y="150" width="100" height="40" as="geometry"/>
                </mxCell>
                <mxCell id="24" value="price" style="ellipse;whiteSpace=wrap;html=1;align=center;" parent="1" vertex="1">
                    <mxGeometry x="580" y="200" width="100" height="40" as="geometry"/>
                </mxCell>
                <mxCell id="25" value="email" style="ellipse;whiteSpace=wrap;html=1;align=center;" parent="1" vertex="1">
                    <mxGeometry x="740" y="740" width="100" height="40" as="geometry"/>
                </mxCell>
                <mxCell id="26" value="adress" style="ellipse;whiteSpace=wrap;html=1;align=center;" parent="1" vertex="1">
                    <mxGeometry x="670" y="800" width="100" height="40" as="geometry"/>
                </mxCell>
                <mxCell id="27" value="name" style="ellipse;whiteSpace=wrap;html=1;align=center;" parent="1" vertex="1">
                    <mxGeometry x="600" y="740" width="100" height="40" as="geometry"/>
                </mxCell>
                <mxCell id="28" value="method" style="ellipse;whiteSpace=wrap;html=1;align=center;" parent="1" vertex="1">
                    <mxGeometry x="150" y="760" width="100" height="40" as="geometry"/>
                </mxCell>
                <mxCell id="29" value="name" style="ellipse;whiteSpace=wrap;html=1;align=center;" parent="1" vertex="1">
                    <mxGeometry x="40" y="760" width="100" height="40" as="geometry"/>
                </mxCell>
                <mxCell id="30" value="paypal" style="ellipse;whiteSpace=wrap;html=1;align=center;" parent="1" vertex="1">
                    <mxGeometry x="320" y="550" width="100" height="40" as="geometry"/>
                </mxCell>
                <mxCell id="31" value="credit card" style="ellipse;whiteSpace=wrap;html=1;align=center;" parent="1" vertex="1">
                    <mxGeometry x="230" y="510" width="100" height="40" as="geometry"/>
                </mxCell>
                <mxCell id="32" value="applepay" style="ellipse;whiteSpace=wrap;html=1;align=center;" parent="1" vertex="1">
                    <mxGeometry x="425" y="520" width="100" height="40" as="geometry"/>
                </mxCell>
                <mxCell id="33" value="" style="endArrow=none;html=1;rounded=0;exitX=0.25;exitY=1;exitDx=0;exitDy=0;entryX=1;entryY=0;entryDx=0;entryDy=0;" parent="1" source="2" target="31" edge="1">
                    <mxGeometry relative="1" as="geometry">
                        <mxPoint x="380" y="610" as="sourcePoint"/>
                        <mxPoint x="330" y="510" as="targetPoint"/>
                    </mxGeometry>
                </mxCell>
                <mxCell id="34" value="" style="endArrow=none;html=1;rounded=0;exitX=0.5;exitY=0;exitDx=0;exitDy=0;entryX=0.5;entryY=1;entryDx=0;entryDy=0;" parent="1" source="25" target="4" edge="1">
                    <mxGeometry relative="1" as="geometry">
                        <mxPoint x="380" y="610" as="sourcePoint"/>
                        <mxPoint x="540" y="610" as="targetPoint"/>
                    </mxGeometry>
                </mxCell>
                <mxCell id="35" value="" style="endArrow=none;html=1;rounded=0;entryX=0.055;entryY=0.2;entryDx=0;entryDy=0;entryPerimeter=0;exitX=0.75;exitY=1;exitDx=0;exitDy=0;" parent="1" source="2" target="32" edge="1">
                    <mxGeometry relative="1" as="geometry">
                        <mxPoint x="420" y="490" as="sourcePoint"/>
                        <mxPoint x="540" y="610" as="targetPoint"/>
                    </mxGeometry>
                </mxCell>
                <mxCell id="36" value="" style="endArrow=none;html=1;rounded=0;exitX=0.5;exitY=1;exitDx=0;exitDy=0;entryX=0.5;entryY=0;entryDx=0;entryDy=0;" parent="1" source="2" target="30" edge="1">
                    <mxGeometry relative="1" as="geometry">
                        <mxPoint x="380" y="610" as="sourcePoint"/>
                        <mxPoint x="540" y="610" as="targetPoint"/>
                    </mxGeometry>
                </mxCell>
                <mxCell id="38" value="" style="endArrow=none;html=1;rounded=0;exitX=0.5;exitY=1;exitDx=0;exitDy=0;entryX=0.5;entryY=0;entryDx=0;entryDy=0;" parent="1" source="3" target="29" edge="1">
                    <mxGeometry relative="1" as="geometry">
                        <mxPoint x="380" y="610" as="sourcePoint"/>
                        <mxPoint x="540" y="610" as="targetPoint"/>
                    </mxGeometry>
                </mxCell>
                <mxCell id="39" value="" style="endArrow=none;html=1;rounded=0;entryX=0.5;entryY=1;entryDx=0;entryDy=0;exitX=0.5;exitY=0;exitDx=0;exitDy=0;" parent="1" source="28" target="3" edge="1">
                    <mxGeometry relative="1" as="geometry">
                        <mxPoint x="380" y="610" as="sourcePoint"/>
                        <mxPoint x="540" y="610" as="targetPoint"/>
                    </mxGeometry>
                </mxCell>
                <mxCell id="40" value="" style="endArrow=none;html=1;rounded=0;entryX=0.5;entryY=1;entryDx=0;entryDy=0;exitX=0.5;exitY=0;exitDx=0;exitDy=0;" parent="1" source="26" target="4" edge="1">
                    <mxGeometry relative="1" as="geometry">
                        <mxPoint x="380" y="610" as="sourcePoint"/>
                        <mxPoint x="540" y="610" as="targetPoint"/>
                    </mxGeometry>
                </mxCell>
                <mxCell id="41" value="" style="endArrow=none;html=1;rounded=0;entryX=0.5;entryY=1;entryDx=0;entryDy=0;exitX=0.5;exitY=0;exitDx=0;exitDy=0;" parent="1" source="27" target="4" edge="1">
                    <mxGeometry relative="1" as="geometry">
                        <mxPoint x="380" y="610" as="sourcePoint"/>
                        <mxPoint x="540" y="610" as="targetPoint"/>
                    </mxGeometry>
                </mxCell>
                <mxCell id="42" value="" style="endArrow=none;html=1;rounded=0;entryX=0.41;entryY=1.063;entryDx=0;entryDy=0;entryPerimeter=0;" parent="1" target="21" edge="1">
                    <mxGeometry relative="1" as="geometry">
                        <mxPoint x="720" y="280" as="sourcePoint"/>
                        <mxPoint x="540" y="510" as="targetPoint"/>
                    </mxGeometry>
                </mxCell>
                <mxCell id="43" value="" style="endArrow=none;html=1;rounded=0;entryX=0.305;entryY=1;entryDx=0;entryDy=0;entryPerimeter=0;exitX=0.5;exitY=0;exitDx=0;exitDy=0;" parent="1" source="5" target="22" edge="1">
                    <mxGeometry relative="1" as="geometry">
                        <mxPoint x="380" y="510" as="sourcePoint"/>
                        <mxPoint x="540" y="510" as="targetPoint"/>
                    </mxGeometry>
                </mxCell>
                <mxCell id="44" value="" style="endArrow=none;html=1;rounded=0;entryX=0.77;entryY=0.875;entryDx=0;entryDy=0;entryPerimeter=0;exitX=0.5;exitY=0;exitDx=0;exitDy=0;" parent="1" source="5" target="23" edge="1">
                    <mxGeometry relative="1" as="geometry">
                        <mxPoint x="380" y="410" as="sourcePoint"/>
                        <mxPoint x="540" y="410" as="targetPoint"/>
                    </mxGeometry>
                </mxCell>
                <mxCell id="45" value="" style="endArrow=none;html=1;rounded=0;entryX=0.62;entryY=0.938;entryDx=0;entryDy=0;entryPerimeter=0;exitX=0.5;exitY=0;exitDx=0;exitDy=0;" parent="1" source="5" target="24" edge="1">
                    <mxGeometry relative="1" as="geometry">
                        <mxPoint x="380" y="410" as="sourcePoint"/>
                        <mxPoint x="540" y="410" as="targetPoint"/>
                    </mxGeometry>
                </mxCell>
                <mxCell id="46" value="" style="endArrow=none;html=1;rounded=0;entryX=0.5;entryY=1;entryDx=0;entryDy=0;exitX=0.5;exitY=0;exitDx=0;exitDy=0;" parent="1" source="7" target="17" edge="1">
                    <mxGeometry relative="1" as="geometry">
                        <mxPoint x="380" y="410" as="sourcePoint"/>
                        <mxPoint x="540" y="410" as="targetPoint"/>
                    </mxGeometry>
                </mxCell>
                <mxCell id="47" value="" style="endArrow=none;html=1;rounded=0;entryX=0.26;entryY=0.913;entryDx=0;entryDy=0;entryPerimeter=0;exitX=0.5;exitY=0;exitDx=0;exitDy=0;" parent="1" source="7" target="18" edge="1">
                    <mxGeometry relative="1" as="geometry">
                        <mxPoint x="380" y="410" as="sourcePoint"/>
                        <mxPoint x="540" y="410" as="targetPoint"/>
                    </mxGeometry>
                </mxCell>
                <mxCell id="48" value="" style="endArrow=none;html=1;rounded=0;exitX=0.5;exitY=0;exitDx=0;exitDy=0;" parent="1" source="7" target="19" edge="1">
                    <mxGeometry relative="1" as="geometry">
                        <mxPoint x="380" y="410" as="sourcePoint"/>
                        <mxPoint x="540" y="410" as="targetPoint"/>
                    </mxGeometry>
                </mxCell>
                <mxCell id="49" value="" style="endArrow=none;html=1;rounded=0;exitX=0.5;exitY=0;exitDx=0;exitDy=0;entryX=0.5;entryY=1;entryDx=0;entryDy=0;" parent="1" source="7" target="20" edge="1">
                    <mxGeometry relative="1" as="geometry">
                        <mxPoint x="380" y="410" as="sourcePoint"/>
                        <mxPoint x="330" y="227" as="targetPoint"/>
                    </mxGeometry>
                </mxCell>
                <mxCell id="50" value="" style="endArrow=none;html=1;rounded=0;exitX=0.5;exitY=1;exitDx=0;exitDy=0;entryX=0.5;entryY=0;entryDx=0;entryDy=0;" parent="1" source="15" target="6" edge="1">
                    <mxGeometry relative="1" as="geometry">
                        <mxPoint x="380" y="410" as="sourcePoint"/>
                        <mxPoint x="540" y="410" as="targetPoint"/>
                    </mxGeometry>
                </mxCell>
                <mxCell id="51" value="" style="endArrow=none;html=1;rounded=0;exitX=0.5;exitY=1;exitDx=0;exitDy=0;entryX=0.5;entryY=0;entryDx=0;entryDy=0;" parent="1" source="16" target="6" edge="1">
                    <mxGeometry relative="1" as="geometry">
                        <mxPoint x="380" y="410" as="sourcePoint"/>
                        <mxPoint x="540" y="410" as="targetPoint"/>
                    </mxGeometry>
                </mxCell>
                <mxCell id="53" value="" style="endArrow=none;html=1;rounded=0;entryX=0;entryY=0.5;entryDx=0;entryDy=0;startArrow=ERzeroToMany;startFill=1;" parent="1" target="12" edge="1">
                    <mxGeometry relative="1" as="geometry">
                        <mxPoint x="460" y="300" as="sourcePoint"/>
                        <mxPoint x="540" y="310" as="targetPoint"/>
                    </mxGeometry>
                </mxCell>
                <mxCell id="61" value="" style="endArrow=none;html=1;rounded=0;exitX=0.5;exitY=0;exitDx=0;exitDy=0;endFill=0;startArrow=ERmandOne;startFill=0;entryX=0.5;entryY=1;entryDx=0;entryDy=0;" parent="1" source="2" target="8" edge="1">
                    <mxGeometry relative="1" as="geometry">
                        <mxPoint x="260" y="410" as="sourcePoint"/>
                        <mxPoint x="410" y="410" as="targetPoint"/>
                    </mxGeometry>
                </mxCell>
                <mxCell id="62" value="" style="endArrow=ERmany;html=1;rounded=0;entryX=0.5;entryY=1;entryDx=0;entryDy=0;exitX=0.5;exitY=0;exitDx=0;exitDy=0;endFill=0;" parent="1" source="8" target="7" edge="1">
                    <mxGeometry relative="1" as="geometry">
                        <mxPoint x="260" y="410" as="sourcePoint"/>
                        <mxPoint x="420" y="410" as="targetPoint"/>
                    </mxGeometry>
                </mxCell>
                <mxCell id="63" value="" style="endArrow=ERoneToMany;html=1;rounded=0;entryX=0;entryY=0.5;entryDx=0;entryDy=0;exitX=1;exitY=0.5;exitDx=0;exitDy=0;endFill=0;" parent="1" source="12" target="5" edge="1">
                    <mxGeometry relative="1" as="geometry">
                        <mxPoint x="260" y="410" as="sourcePoint"/>
                        <mxPoint x="420" y="410" as="targetPoint"/>
                    </mxGeometry>
                </mxCell>
                <mxCell id="64" value="" style="endArrow=none;html=1;rounded=0;entryX=0.5;entryY=0;entryDx=0;entryDy=0;exitX=0.5;exitY=1;exitDx=0;exitDy=0;startArrow=ERone;startFill=0;" parent="1" source="5" target="11" edge="1">
                    <mxGeometry relative="1" as="geometry">
                        <mxPoint x="260" y="410" as="sourcePoint"/>
                        <mxPoint x="420" y="410" as="targetPoint"/>
                    </mxGeometry>
                </mxCell>
                <mxCell id="65" value="" style="endArrow=ERone;html=1;rounded=0;entryX=0.5;entryY=0;entryDx=0;entryDy=0;exitX=0.5;exitY=1;exitDx=0;exitDy=0;endFill=0;" parent="1" source="11" target="4" edge="1">
                    <mxGeometry relative="1" as="geometry">
                        <mxPoint x="260" y="410" as="sourcePoint"/>
                        <mxPoint x="420" y="410" as="targetPoint"/>
                    </mxGeometry>
                </mxCell>
                <mxCell id="66" value="" style="endArrow=ERmany;html=1;rounded=0;exitX=1;exitY=0.5;exitDx=0;exitDy=0;entryX=0;entryY=0.5;entryDx=0;entryDy=0;endFill=0;" parent="1" source="10" target="4" edge="1">
                    <mxGeometry relative="1" as="geometry">
                        <mxPoint x="630" y="700" as="sourcePoint"/>
                        <mxPoint x="420" y="410" as="targetPoint"/>
                    </mxGeometry>
                </mxCell>
                <mxCell id="67" value="" style="endArrow=none;html=1;rounded=0;exitX=1;exitY=0.5;exitDx=0;exitDy=0;entryX=0;entryY=0.5;entryDx=0;entryDy=0;startArrow=ERone;startFill=0;" parent="1" source="3" target="10" edge="1">
                    <mxGeometry relative="1" as="geometry">
                        <mxPoint x="260" y="410" as="sourcePoint"/>
                        <mxPoint x="420" y="410" as="targetPoint"/>
                    </mxGeometry>
                </mxCell>
                <mxCell id="68" value="" style="endArrow=none;html=1;rounded=0;exitX=0.5;exitY=0;exitDx=0;exitDy=0;entryX=0.5;entryY=1;entryDx=0;entryDy=0;startArrow=ERone;startFill=0;" parent="1" source="3" target="9" edge="1">
                    <mxGeometry relative="1" as="geometry">
                        <mxPoint x="260" y="410" as="sourcePoint"/>
                        <mxPoint x="420" y="410" as="targetPoint"/>
                    </mxGeometry>
                </mxCell>
                <mxCell id="69" value="" style="endArrow=none;html=1;rounded=0;exitX=1;exitY=0.5;exitDx=0;exitDy=0;entryX=0;entryY=0.5;entryDx=0;entryDy=0;startArrow=ERone;startFill=0;" parent="1" source="6" target="13" edge="1">
                    <mxGeometry relative="1" as="geometry">
                        <mxPoint x="260" y="410" as="sourcePoint"/>
                        <mxPoint x="420" y="410" as="targetPoint"/>
                    </mxGeometry>
                </mxCell>
                <mxCell id="70" value="" style="endArrow=ERzeroToMany;html=1;rounded=0;exitX=1;exitY=0.5;exitDx=0;exitDy=0;entryX=0;entryY=0.5;entryDx=0;entryDy=0;endFill=1;" parent="1" source="13" target="7" edge="1">
                    <mxGeometry relative="1" as="geometry">
                        <mxPoint x="260" y="410" as="sourcePoint"/>
                        <mxPoint x="420" y="410" as="targetPoint"/>
                    </mxGeometry>
                </mxCell>
                <mxCell id="75" value="" style="endArrow=ERmany;html=1;rounded=0;entryX=0;entryY=1;entryDx=0;entryDy=0;exitX=0.688;exitY=0.133;exitDx=0;exitDy=0;exitPerimeter=0;endFill=0;" parent="1" source="9" target="7" edge="1">
                    <mxGeometry relative="1" as="geometry">
                        <mxPoint x="173" y="436" as="sourcePoint"/>
                        <mxPoint x="350" y="470" as="targetPoint"/>
                        <Array as="points"/>
                    </mxGeometry>
                </mxCell>
                <mxCell id="76" value="invoice" style="whiteSpace=wrap;html=1;align=center;" parent="1" vertex="1">
                    <mxGeometry x="600" y="460" width="100" height="40" as="geometry"/>
                </mxCell>
                <mxCell id="78" value="create" style="shape=rhombus;perimeter=rhombusPerimeter;whiteSpace=wrap;html=1;align=center;" parent="1" vertex="1">
                    <mxGeometry x="470" y="450" width="90" height="60" as="geometry"/>
                </mxCell>
                <mxCell id="81" value="" style="endArrow=ERone;html=1;rounded=0;exitX=1;exitY=0.5;exitDx=0;exitDy=0;entryX=0;entryY=0.5;entryDx=0;entryDy=0;endFill=0;" parent="1" source="78" target="76" edge="1">
                    <mxGeometry relative="1" as="geometry">
                        <mxPoint x="440" y="510" as="sourcePoint"/>
                        <mxPoint x="590" y="480" as="targetPoint"/>
                    </mxGeometry>
                </mxCell>
                <mxCell id="82" value="" style="endArrow=none;html=1;rounded=0;exitX=1;exitY=0.5;exitDx=0;exitDy=0;startArrow=ERone;startFill=0;" parent="1" source="2" edge="1">
                    <mxGeometry relative="1" as="geometry">
                        <mxPoint x="440" y="510" as="sourcePoint"/>
                        <mxPoint x="470" y="480" as="targetPoint"/>
                    </mxGeometry>
                </mxCell>
            </root>
        </mxGraphModel>
    </diagram>
</mxfile>